<mxfile host="app.diagrams.net" agent="Mozilla/5.0 (Windows NT 10.0; Win64; x64) AppleWebKit/537.36 (KHTML, like Gecko) Chrome/140.0.0.0 Safari/537.36" version="28.2.5">
  <diagram name="Página-1" id="gaDqNs-Z_ioQIhLw9NDz">
    <mxGraphModel dx="872" dy="439" grid="1" gridSize="10" guides="1" tooltips="1" connect="1" arrows="1" fold="1" page="1" pageScale="1" pageWidth="827" pageHeight="1169" math="0" shadow="0">
      <root>
        <mxCell id="0" />
        <mxCell id="1" parent="0" />
        <mxCell id="uDaDyvZDCm8V6q7PungI-4" value="" style="edgeStyle=orthogonalEdgeStyle;rounded=0;orthogonalLoop=1;jettySize=auto;html=1;" edge="1" parent="1" source="uDaDyvZDCm8V6q7PungI-1" target="uDaDyvZDCm8V6q7PungI-3">
          <mxGeometry relative="1" as="geometry" />
        </mxCell>
        <mxCell id="uDaDyvZDCm8V6q7PungI-1" value="Inicio" style="ellipse;whiteSpace=wrap;html=1;fillColor=#fa6800;fontColor=#000000;strokeColor=#C73500;" vertex="1" parent="1">
          <mxGeometry x="347.5" y="30" width="120" height="80" as="geometry" />
        </mxCell>
        <mxCell id="uDaDyvZDCm8V6q7PungI-6" value="" style="edgeStyle=orthogonalEdgeStyle;rounded=0;orthogonalLoop=1;jettySize=auto;html=1;" edge="1" parent="1" source="uDaDyvZDCm8V6q7PungI-3" target="uDaDyvZDCm8V6q7PungI-5">
          <mxGeometry relative="1" as="geometry" />
        </mxCell>
        <mxCell id="uDaDyvZDCm8V6q7PungI-3" value="Pre Proceso" style="ellipse;whiteSpace=wrap;html=1;fillColor=#e51400;fontColor=#ffffff;strokeColor=#B20000;" vertex="1" parent="1">
          <mxGeometry x="360" y="140" width="95" height="50" as="geometry" />
        </mxCell>
        <mxCell id="uDaDyvZDCm8V6q7PungI-8" value="" style="edgeStyle=orthogonalEdgeStyle;rounded=0;orthogonalLoop=1;jettySize=auto;html=1;" edge="1" parent="1" source="uDaDyvZDCm8V6q7PungI-5" target="uDaDyvZDCm8V6q7PungI-7">
          <mxGeometry relative="1" as="geometry" />
        </mxCell>
        <mxCell id="uDaDyvZDCm8V6q7PungI-5" value="Obtener seleccion del usuario" style="whiteSpace=wrap;html=1;fillColor=#6a00ff;fontColor=#ffffff;strokeColor=#3700CC;" vertex="1" parent="1">
          <mxGeometry x="347.5" y="220" width="115" height="35" as="geometry" />
        </mxCell>
        <mxCell id="uDaDyvZDCm8V6q7PungI-10" value="" style="edgeStyle=orthogonalEdgeStyle;rounded=0;orthogonalLoop=1;jettySize=auto;html=1;" edge="1" parent="1" source="uDaDyvZDCm8V6q7PungI-7" target="uDaDyvZDCm8V6q7PungI-9">
          <mxGeometry relative="1" as="geometry" />
        </mxCell>
        <mxCell id="uDaDyvZDCm8V6q7PungI-12" value="" style="edgeStyle=orthogonalEdgeStyle;rounded=0;orthogonalLoop=1;jettySize=auto;html=1;" edge="1" parent="1" source="uDaDyvZDCm8V6q7PungI-7" target="uDaDyvZDCm8V6q7PungI-11">
          <mxGeometry relative="1" as="geometry" />
        </mxCell>
        <mxCell id="uDaDyvZDCm8V6q7PungI-7" value="¿Gano?" style="ellipse;whiteSpace=wrap;html=1;fillColor=#a20025;fontColor=#ffffff;strokeColor=#6F0000;" vertex="1" parent="1">
          <mxGeometry x="365" y="290" width="80" height="80" as="geometry" />
        </mxCell>
        <mxCell id="uDaDyvZDCm8V6q7PungI-17" style="edgeStyle=orthogonalEdgeStyle;rounded=0;orthogonalLoop=1;jettySize=auto;html=1;exitX=0.5;exitY=1;exitDx=0;exitDy=0;entryX=0;entryY=0.5;entryDx=0;entryDy=0;" edge="1" parent="1" source="uDaDyvZDCm8V6q7PungI-9" target="uDaDyvZDCm8V6q7PungI-15">
          <mxGeometry relative="1" as="geometry" />
        </mxCell>
        <mxCell id="uDaDyvZDCm8V6q7PungI-9" value="&#xa;&lt;pre&gt;&lt;div&gt;&lt;span&gt;Mostrar &lt;/span&gt;&lt;span&gt;Mensaje: &lt;/span&gt;&lt;span&gt;¡Ganaste!&lt;/span&gt;&lt;/div&gt;&lt;/pre&gt;&#xa;&#xa;" style="whiteSpace=wrap;html=1;fillColor=#d80073;fontColor=#ffffff;strokeColor=#A50040;" vertex="1" parent="1">
          <mxGeometry x="185" y="300" width="120" height="60" as="geometry" />
        </mxCell>
        <mxCell id="uDaDyvZDCm8V6q7PungI-18" style="edgeStyle=orthogonalEdgeStyle;rounded=0;orthogonalLoop=1;jettySize=auto;html=1;entryX=1;entryY=0.5;entryDx=0;entryDy=0;" edge="1" parent="1" source="uDaDyvZDCm8V6q7PungI-11" target="uDaDyvZDCm8V6q7PungI-15">
          <mxGeometry relative="1" as="geometry">
            <Array as="points">
              <mxPoint x="570" y="490" />
            </Array>
          </mxGeometry>
        </mxCell>
        <mxCell id="uDaDyvZDCm8V6q7PungI-11" value="&#xa;&lt;pre&gt;&lt;div&gt;&lt;span&gt;Mostrar &lt;/span&gt;&lt;span&gt;Mensaje: &lt;/span&gt;&lt;span&gt;Perdiste...&lt;/span&gt;&lt;/div&gt;&lt;/pre&gt;&#xa;&#xa;" style="whiteSpace=wrap;html=1;fillColor=#d80073;fontColor=#ffffff;strokeColor=#A50040;" vertex="1" parent="1">
          <mxGeometry x="505" y="300" width="120" height="60" as="geometry" />
        </mxCell>
        <mxCell id="uDaDyvZDCm8V6q7PungI-20" value="" style="edgeStyle=orthogonalEdgeStyle;rounded=0;orthogonalLoop=1;jettySize=auto;html=1;" edge="1" parent="1" source="uDaDyvZDCm8V6q7PungI-15" target="uDaDyvZDCm8V6q7PungI-19">
          <mxGeometry relative="1" as="geometry" />
        </mxCell>
        <mxCell id="uDaDyvZDCm8V6q7PungI-15" value="&#xa;&lt;pre&gt;&lt;div&gt;&lt;span&gt;Mostrar &lt;/span&gt;&lt;span&gt;Mensaje: &lt;/span&gt;&lt;span&gt;¡Empate!&lt;/span&gt;&lt;/div&gt;&lt;/pre&gt;&#xa;&#xa;" style="whiteSpace=wrap;html=1;fillColor=#d80073;fontColor=#ffffff;strokeColor=#A50040;" vertex="1" parent="1">
          <mxGeometry x="345" y="460" width="120" height="60" as="geometry" />
        </mxCell>
        <mxCell id="uDaDyvZDCm8V6q7PungI-19" value="Fin" style="whiteSpace=wrap;html=1;fillColor=#a20025;fontColor=#ffffff;strokeColor=#6F0000;" vertex="1" parent="1">
          <mxGeometry x="345" y="600" width="120" height="60" as="geometry" />
        </mxCell>
      </root>
    </mxGraphModel>
  </diagram>
</mxfile>
